<?xml version="1.0" standalone="no"?>
<!DOCTYPE svg PUBLIC "-//W3C//DTD SVG 20010904//EN"
 "http://www.w3.org/TR/2001/REC-SVG-20010904/DTD/svg10.dtd">
<svg version="1.0" xmlns="http://www.w3.org/2000/svg"
 width="225.000000pt" height="225.000000pt" viewBox="0 0 225.000000 225.000000"
 preserveAspectRatio="xMidYMid meet">
<metadata>
Created by potrace 1.14, written by Peter Selinger 2001-2017
</metadata>
<g transform="translate(0.000000,225.000000) scale(0.100000,-0.100000)"
fill="#000000" stroke="none">
<path d="M453 2064 c3 -104 11 -234 17 -290 6 -55 10 -115 8 -132 l-3 -31 -79
50 c-43 28 -105 63 -137 79 -32 15 -74 38 -93 49 -38 24 -50 17 -41 -22 6 -22
3 -25 -36 -31 -23 -4 -46 -9 -51 -13 -6 -3 7 -23 28 -44 l38 -39 -22 -23 c-12
-13 -22 -26 -22 -30 0 -3 20 -15 43 -25 39 -17 49 -29 89 -108 26 -49 56 -107
69 -130 l23 -41 -24 -79 c-21 -67 -25 -102 -26 -234 -2 -151 -3 -156 -32 -211
-72 -137 -39 -295 78 -361 22 -13 40 -29 40 -37 0 -8 12 -29 26 -48 21 -28 28
-32 40 -22 12 10 18 8 30 -9 21 -30 44 -28 44 4 0 24 3 25 31 19 32 -7 32 -7
26 29 -3 19 -2 38 2 40 4 3 26 -7 47 -23 21 -16 64 -41 94 -57 30 -16 77 -53
105 -83 41 -45 95 -81 120 -81 3 0 16 24 29 54 19 42 29 54 52 59 38 8 63 -21
114 -130 43 -91 61 -105 131 -105 37 0 57 7 93 31 27 19 44 37 40 43 -4 6 -3
8 3 5 23 -14 95 88 118 168 18 62 16 166 -4 204 -9 15 0 37 47 113 31 52 66
118 76 145 l20 51 95 33 c53 18 143 55 201 82 99 45 120 50 162 32 14 -5 17 0
20 36 3 38 6 43 37 54 47 16 49 31 7 52 -40 19 -44 28 -19 41 15 9 14 10 -3
20 -24 12 -125 28 -287 43 -145 13 -162 24 -110 68 17 14 84 71 149 125 66 55
175 149 243 210 123 110 124 110 95 118 -34 10 -600 12 -650 2 -39 -7 -44 4
-14 31 12 10 18 25 16 32 -3 7 0 12 6 10 6 -1 13 4 15 12 4 10 -3 12 -33 7
-22 -3 -63 -8 -91 -11 l-53 -7 55 97 c30 53 55 99 55 102 0 15 -219 -49 -320
-94 -51 -22 -56 -23 -65 -7 -5 9 -17 26 -26 37 -17 21 -17 21 -36 -11 l-19
-31 -49 49 c-27 28 -52 50 -56 50 -4 0 -10 -22 -14 -50 -4 -27 -9 -50 -12 -50
-3 0 -78 69 -166 154 -168 159 -236 219 -270 238 -20 10 -20 8 -14 -178z m66
124 c170 -154 340 -321 334 -330 -3 -6 -1 -8 4 -5 16 10 30 -14 28 -49 0 -18
4 -31 11 -31 7 0 9 7 6 16 -5 13 -3 14 10 3 21 -17 61 -25 52 -10 -5 8 7 9 40
6 27 -3 46 -1 46 4 0 6 7 8 14 5 11 -4 13 -1 9 11 -6 15 -5 15 10 3 14 -11 17
-11 18 0 0 9 2 10 5 3 3 -7 15 -10 27 -7 22 5 22 5 2 -11 -19 -15 -19 -16 8
-6 22 8 32 7 43 -5 9 -8 24 -15 34 -15 10 0 22 -9 25 -20 6 -20 15 -24 48 -21
9 1 17 -3 17 -8 0 -6 -7 -11 -15 -11 -8 0 -15 -4 -15 -10 0 -5 11 -10 24 -10
16 0 26 -7 29 -21 3 -12 10 -18 16 -14 6 3 11 1 11 -4 0 -6 16 -11 35 -11 24
0 35 -5 35 -15 0 -8 -4 -15 -10 -15 -14 0 -13 -77 1 -82 15 -5 -29 -78 -47
-78 -8 0 -14 -4 -14 -9 0 -12 -59 -71 -70 -71 -5 0 -10 7 -12 16 -2 12 -10 9
-33 -15 -16 -17 -38 -31 -47 -31 -10 0 -18 -2 -18 -4 0 -2 -3 -11 -6 -20 -4
-11 -1 -16 10 -16 9 0 16 -5 16 -10 0 -7 -6 -7 -19 0 -23 12 -71 13 -86 2 -6
-4 -19 -20 -29 -37 -11 -16 -21 -25 -23 -19 -2 7 -18 9 -43 4 -22 -4 -40 -3
-40 1 0 5 -6 9 -13 9 -7 0 -23 9 -35 20 -29 27 -44 25 -36 -5 5 -19 2 -25 -10
-25 -24 0 -76 28 -76 41 0 6 -4 7 -10 4 -11 -7 -26 23 -65 130 -14 39 -24 60
-21 47 3 -16 -4 -30 -22 -47 -29 -27 -42 -25 -21 2 11 15 11 16 -1 6 -8 -7
-22 -13 -32 -13 -10 0 -18 -4 -18 -10 0 -5 9 -10 21 -10 12 0 19 -5 16 -12 -2
-7 -13 -12 -23 -10 -16 2 -17 1 -4 -7 13 -10 13 -11 0 -11 -8 0 -21 -4 -29 -9
-16 -11 -24 -61 -8 -58 6 1 12 -11 13 -27 2 -16 8 -42 13 -59 6 -16 8 -34 4
-41 -3 -6 -3 -8 2 -4 11 10 37 -11 29 -24 -3 -5 -17 -2 -32 8 -24 16 -26 16
-13 1 12 -15 11 -17 -2 -17 -16 0 -16 27 -2 50 4 6 3 10 -2 9 -19 -3 -33 2
-33 12 0 6 6 9 14 6 10 -4 12 4 10 30 -1 19 -6 38 -10 41 -4 4 -4 -5 0 -21 5
-20 2 -29 -9 -33 -16 -7 -47 24 -39 38 2 4 0 9 -5 13 -10 6 -35 -16 -59 -51
-7 -10 -10 -13 -6 -6 8 18 -4 82 -17 82 -5 0 -7 -11 -3 -25 3 -14 2 -25 -4
-25 -10 0 -26 77 -24 115 1 16 0 17 -4 3 -3 -10 -9 -18 -14 -18 -5 0 -7 7 -4
15 7 18 -42 69 -58 59 -7 -4 -8 -3 -4 4 5 8 0 12 -13 12 -12 0 -21 5 -21 10 0
6 -13 9 -30 8 -20 -1 -26 -6 -20 -12 6 -6 10 -14 10 -20 0 -5 -9 1 -20 14 -22
26 -26 44 -7 35 6 -4 5 -1 -4 7 -9 7 -14 19 -11 27 3 8 0 11 -6 7 -14 -8 -40
41 -37 72 1 17 -2 21 -17 16 -13 -4 -16 -1 -12 9 3 10 15 14 33 11 20 -3 30 0
34 11 7 17 -6 19 -33 5 -16 -8 -19 -7 -18 12 1 13 11 33 22 46 16 18 17 25 7
35 -10 9 -12 9 -9 -3 2 -11 -5 -14 -27 -13 -22 2 -26 0 -15 -7 13 -9 13 -10 0
-11 -8 -1 -19 -1 -23 0 -5 1 -6 -3 -2 -9 4 -7 13 -7 26 1 12 6 23 8 26 5 3 -3
-2 -8 -11 -12 -13 -5 -14 -9 -5 -20 25 -31 -8 -11 -46 27 l-40 40 51 -3 c43
-3 54 0 68 20 9 12 12 22 7 22 -5 0 -13 -5 -17 -12 -5 -7 -10 -3 -16 12 -5 12
-7 25 -5 27 11 10 347 -186 347 -203 0 -3 -5 -2 -12 2 -8 5 -9 1 -5 -12 7 -18
7 -18 -8 0 -8 11 -15 17 -15 13 0 -12 23 -57 30 -57 3 0 21 16 38 36 18 20 32
33 32 29 0 -4 9 4 20 17 10 14 33 31 49 38 35 14 49 40 23 40 -10 0 -27 -7
-38 -16 -10 -8 -13 -13 -6 -9 6 3 12 4 12 1 0 -3 -18 -15 -39 -26 -29 -14 -41
-16 -44 -7 -3 6 -6 -1 -6 -17 -2 -53 -9 -23 -16 64 -4 47 -9 88 -11 91 -2 3
-6 62 -10 130 -4 68 -8 155 -11 192 -2 47 0 74 9 85 10 12 10 14 1 8 -9 -5
-13 1 -13 18 0 14 3 26 6 26 4 0 28 -19 53 -42z m922 -288 c-19 -16 -37 -27
-40 -24 -3 3 1 9 9 14 8 6 11 10 6 10 -19 0 14 26 36 27 21 2 20 -1 -11 -27z
m-490 3 c13 -16 12 -17 -3 -4 -10 7 -18 15 -18 17 0 8 8 3 21 -13z m129 -23
c0 -5 -5 -10 -11 -10 -5 0 -7 5 -4 10 3 6 8 10 11 10 2 0 4 -4 4 -10z m-37
-75 c-7 -21 -12 -19 -10 4 0 11 5 18 9 15 4 -3 5 -11 1 -19z m-91 0 c5 -6 8
-5 8 3 0 7 5 10 11 7 6 -5 4 -12 -8 -20 -13 -10 -23 -10 -38 -2 -11 6 -24 10
-28 9 -5 -1 -6 2 -3 7 8 13 49 10 58 -4z m63 5 c-3 -5 -10 -10 -16 -10 -5 0
-9 5 -9 10 0 6 7 10 16 10 8 0 12 -4 9 -10z m372 -96 c-3 -3 -12 -4 -19 -1 -8
3 -5 6 6 6 11 1 17 -2 13 -5z m73 -48 c0 -8 -4 -17 -8 -20 -4 -2 -8 4 -8 15 0
10 4 19 8 19 4 0 8 -6 8 -14z m698 8 c28 -6 29 -7 14 -25 -9 -10 -23 -19 -32
-18 -10 0 -9 3 5 9 13 6 15 9 5 9 -8 0 -22 -4 -30 -9 -12 -8 -13 -12 -1 -19
10 -6 4 -15 -25 -37 -22 -16 -44 -35 -50 -42 -8 -11 -12 -11 -23 2 -21 25 12
57 51 51 21 -4 27 -2 22 6 -4 8 -3 9 4 5 17 -10 15 3 -2 19 -12 12 -15 12 -20
-2 -4 -9 -9 -13 -13 -10 -3 4 -15 1 -27 -5 -11 -7 -24 -11 -28 -10 -4 1 -5 -5
-2 -13 5 -11 2 -13 -10 -9 -9 3 -27 -1 -41 -10 -13 -9 -33 -16 -44 -16 -11 0
-27 -10 -35 -21 -9 -13 -21 -19 -31 -16 -8 4 -59 -9 -111 -28 -53 -19 -105
-35 -115 -35 -11 0 -19 -4 -19 -10 0 -8 -61 -40 -76 -40 -2 0 -4 29 -4 65 0
58 2 65 20 65 16 0 20 7 20 35 0 19 4 35 10 35 6 0 5 10 -2 25 -8 17 -19 25
-37 25 -14 0 -32 4 -39 9 -8 5 51 9 139 10 85 1 155 4 158 7 7 6 334 5 369 -2z
m-648 -40 c0 -2 -7 -4 -15 -4 -8 0 -15 4 -15 10 0 5 7 7 15 4 8 -4 15 -8 15
-10z m-49 -17 c-10 -9 -11 -8 -5 6 3 10 9 15 12 12 3 -3 0 -11 -7 -18z m-1336
5 c-15 -10 -12 -31 5 -42 20 -13 8 -13 -26 0 -26 10 -26 11 -9 30 10 11 23 20
29 20 7 0 8 -3 1 -8z m1885 -82 c12 -22 12 -24 -2 -12 -12 9 -18 10 -23 2 -4
-6 -16 -10 -28 -8 -14 2 -21 -2 -19 -10 1 -8 -2 -11 -8 -7 -21 13 -9 33 28 47
20 8 38 14 38 14 1 -1 7 -12 14 -26z m-12 -27 c-4 -22 -73 -84 -90 -81 -7 2
-12 -2 -11 -9 2 -7 -3 -10 -11 -7 -7 3 -19 -3 -27 -13 -13 -16 -12 -17 4 -4
11 9 17 10 17 2 0 -6 -4 -11 -10 -11 -5 0 -13 0 -17 0 -13 0 -10 24 5 42 13
15 12 19 -12 29 -18 9 -35 9 -58 2 -31 -10 -32 -11 -7 -12 32 -1 48 -43 27
-69 -7 -9 -8 -13 -3 -10 6 4 17 2 25 -4 13 -8 12 -9 -1 -5 -17 6 -39 -10 -39
-26 0 -5 8 -3 18 4 14 11 15 11 5 -1 -12 -13 -43 -23 -43 -13 0 2 5 13 10 23
8 16 7 18 -4 14 -8 -3 -13 -16 -11 -32 3 -29 -13 -53 -60 -85 -16 -11 -27 -17
-23 -12 4 4 3 14 -3 21 -18 22 0 38 22 18 10 -9 19 -14 19 -11 0 4 0 9 0 12 0
3 -2 4 -3 3 -13 -9 -37 30 -37 58 0 27 4 34 20 34 16 0 20 7 20 36 0 41 17 62
62 75 55 15 88 12 88 -10 0 -10 7 -21 15 -25 18 -6 48 21 39 36 -4 7 -2 8 4 4
6 -4 9 -13 5 -21 -8 -22 0 -18 28 12 22 23 22 26 4 19 -16 -5 -15 -2 5 14 31
24 32 24 28 3z m-1265 -186 c18 -54 23 -90 19 -119 -3 -29 -2 -39 6 -34 7 4
12 15 12 24 1 21 31 -55 33 -83 3 -30 -34 -30 -98 -1 -36 16 -61 36 -75 58
-23 38 -26 104 -7 151 18 43 68 100 78 90 4 -4 19 -43 32 -86z m-363 39 c0 -3
-4 -8 -10 -11 -5 -3 -10 -1 -10 4 0 6 5 11 10 11 6 0 10 -2 10 -4z m-27 -41
c-3 -9 -8 -14 -10 -11 -3 3 -2 9 2 15 9 16 15 13 8 -4z m257 -27 c0 -5 -5 -8
-11 -8 -5 0 -7 5 -4 10 3 6 1 10 -5 10 -6 0 -8 5 -4 11 6 11 23 -6 24 -23z
m550 -12 c0 -2 -7 -6 -15 -10 -8 -3 -15 -1 -15 4 0 6 7 10 15 10 8 0 15 -2 15
-4z m150 -6 c0 -5 -5 -10 -11 -10 -5 0 -7 5 -4 10 3 6 8 10 11 10 2 0 4 -4 4
-10z m47 4 c-3 -3 -12 -4 -19 -1 -8 3 -5 6 6 6 11 1 17 -2 13 -5z m55 -10 c-2
-5 -10 -8 -19 -6 -10 2 -12 -1 -7 -9 4 -8 3 -10 -4 -5 -16 10 -4 34 16 32 9
-2 16 -7 14 -12z m98 -4 c-6 -11 -16 -20 -22 -20 -6 0 -9 -3 -5 -6 12 -12 47
8 47 27 0 10 7 19 15 19 11 0 15 -11 15 -40 0 -40 0 -40 -39 -40 -22 0 -43 5
-46 10 -3 6 -13 10 -21 10 -8 0 -12 -4 -9 -10 10 -16 -1 -11 -19 9 -12 13 -14
21 -6 26 6 3 9 2 8 -3 -2 -6 2 -9 7 -9 6 1 9 7 7 14 -2 8 3 10 13 7 10 -4 15
0 15 10 0 10 9 16 25 16 23 0 24 -2 15 -20z m138 -5 c15 -31 15 -46 2 -25 -9
13 -11 13 -21 0 -8 -12 -9 -9 -5 12 4 16 1 28 -7 31 -8 4 -6 6 4 6 9 1 21 -10
27 -24z m-1338 -11 c-13 -32 -13 -34 3 -29 8 4 12 -9 12 -45 0 -41 3 -50 17
-50 14 0 18 -8 18 -39 0 -22 4 -41 8 -43 5 -1 12 -27 15 -55 5 -43 3 -53 -9
-53 -11 0 -13 -9 -8 -40 8 -48 -1 -79 -18 -62 -7 7 -20 12 -30 12 -11 0 -18 7
-18 20 0 25 -30 27 -31 3 0 -13 -3 -11 -11 7 -11 29 -2 221 14 290 13 50 36
110 43 110 2 0 0 -12 -5 -26z m490 7 c0 -5 3 -18 6 -28 6 -16 5 -16 -9 2 -19
23 -21 35 -7 35 6 0 10 -4 10 -9z m390 -4 c0 -7 -6 -19 -12 -25 -10 -10 -10
-14 0 -20 17 -11 76 -6 80 7 2 6 11 15 20 20 14 7 17 4 18 -15 2 -20 -2 -24
-20 -19 -11 2 -15 2 -8 -1 13 -6 7 -24 -9 -24 -6 0 -7 5 -4 10 3 6 1 10 -5 10
-6 0 -10 -7 -8 -16 3 -17 -32 -44 -84 -65 -14 -6 -29 -17 -32 -25 -3 -8 -12
-11 -22 -7 -11 4 -15 3 -10 -5 3 -6 -3 -16 -14 -22 -23 -12 -22 -13 -25 17 -1
12 4 24 12 27 11 5 12 10 2 28 -9 16 -9 23 -1 26 7 2 22 21 34 43 12 21 27 39
34 39 6 0 17 7 24 15 15 18 30 19 30 2z m145 3 c-3 -5 -11 -10 -16 -10 -6 0
-7 5 -4 10 3 6 11 10 16 10 6 0 7 -4 4 -10z m31 -12 c4 -6 3 -8 -3 -5 -6 4
-13 0 -17 -8 -3 -9 -12 -12 -22 -8 -12 4 -15 3 -10 -5 4 -7 5 -12 2 -12 -19 0
-12 22 11 34 34 19 30 18 39 4z m32 -70 c-11 -153 -118 -236 -247 -193 -27 9
-56 24 -65 34 -16 18 -15 20 28 45 53 31 53 31 59 9 2 -13 7 -8 13 15 7 26 26
43 104 91 52 33 99 60 104 60 4 1 6 -27 4 -61z m-503 32 c-3 -5 -12 -10 -18
-10 -7 0 -6 4 3 10 19 12 23 12 15 0z m753 -15 c-3 -3 -9 2 -12 12 -6 14 -5
15 5 6 7 -7 10 -15 7 -18z m-1110 6 c10 -6 10 -10 -3 -21 -8 -7 -18 -10 -22
-6 -3 3 -1 6 5 6 7 0 12 5 12 11 0 5 -4 8 -9 4 -5 -3 -12 -1 -16 5 -7 12 15
13 33 1z m325 -14 c4 3 7 1 7 -5 0 -16 -23 -15 -38 0 -9 9 -12 9 -12 1 0 -7 5
-15 10 -18 6 -3 10 -15 10 -26 0 -11 5 -17 10 -14 6 4 8 11 5 16 -4 5 -1 9 4
9 15 0 14 -30 -1 -30 -7 -1 -3 -6 10 -13 21 -12 21 -27 -1 -27 -6 0 -7 3 -4 7
4 3 -2 12 -13 20 -11 8 -20 22 -20 32 0 9 -5 22 -11 28 -7 7 -9 19 -5 29 6 15
8 16 25 0 9 -9 21 -13 24 -9z m576 -3 c1 11 4 17 7 13 9 -9 -6 -48 -17 -42 -5
4 -9 16 -8 28 0 21 1 21 9 2 8 -19 9 -19 9 -1z m-949 -15 c0 -11 -4 -17 -10
-14 -5 3 -10 13 -10 21 0 8 5 14 10 14 6 0 10 -9 10 -21z m80 -10 c0 -5 -5 -8
-11 -6 -6 1 -14 -4 -17 -12 -2 -8 0 -11 6 -7 5 3 13 -1 16 -9 4 -12 2 -13 -13
-6 -10 6 -21 18 -25 26 -3 9 -2 14 3 11 5 -3 12 1 15 10 6 15 26 11 26 -7z
m1005 -4 c14 -13 33 -25 43 -27 9 -2 22 -10 29 -18 10 -12 13 -8 13 25 1 31 3
35 10 20 7 -19 6 -45 -6 -104 -4 -18 -2 -22 10 -18 10 4 16 1 16 -8 0 -27 -30
-15 -45 18 -8 17 -13 25 -12 17 1 -9 -2 -16 -8 -17 -5 -1 -9 7 -7 17 2 13 -2
20 -12 20 -24 0 -76 54 -76 79 0 28 15 27 45 -4z m-1007 -86 c17 -20 32 -45
33 -55 0 -11 3 -14 5 -7 5 11 105 -44 146 -80 9 -9 19 -13 22 -10 2 3 31 -4
63 -15 32 -11 84 -26 116 -33 32 -8 57 -19 57 -26 0 -25 -33 -168 -41 -177
-10 -11 -129 17 -199 46 -46 19 -49 22 -45 52 4 23 3 25 -3 8 -9 -31 -16 -30
-69 9 -54 41 -112 110 -136 162 -19 44 -34 166 -22 194 6 16 8 16 23 -7 10
-14 32 -41 50 -61z m322 61 c0 -11 -4 -20 -9 -20 -5 0 -7 9 -4 20 3 11 7 20 9
20 2 0 4 -9 4 -20z m1046 5 c22 -5 29 -35 8 -35 -7 0 -17 -12 -22 -27 -10 -27
-10 -26 -11 15 -1 42 -1 42 -38 42 -21 0 -44 4 -51 9 -13 8 68 5 114 -4z
m-1221 -68 c-2 -15 -1 -26 3 -23 5 3 9 -1 9 -9 0 -8 -4 -12 -8 -9 -4 2 -10 0
-13 -5 -3 -4 -17 -8 -32 -8 -15 0 -21 3 -14 7 6 4 12 11 12 16 -1 5 5 8 13 6
19 -4 31 38 14 49 -7 4 -17 5 -21 3 -4 -3 -8 -1 -8 5 0 6 -7 8 -15 5 -8 -4
-15 -2 -15 3 0 19 11 20 46 4 30 -14 34 -20 29 -44z m255 47 c0 -14 -3 -15
-17 -3 -10 7 -20 15 -22 16 -2 2 5 3 17 3 14 0 22 -6 22 -16z m740 -24 c0 -22
-4 -40 -10 -40 -5 0 -10 18 -10 40 0 22 5 40 10 40 6 0 10 -18 10 -40z m364
29 c33 -9 37 -13 23 -21 -9 -5 -21 -7 -26 -4 -4 3 -13 -6 -19 -19 -7 -14 -17
-25 -23 -25 -8 0 -7 6 2 18 11 14 10 14 -8 -2 -13 -10 -20 -23 -17 -27 3 -5
-2 -9 -10 -9 -8 0 -18 9 -21 21 -5 15 -10 18 -18 10 -6 -6 -15 -11 -19 -11
-15 0 -8 20 12 37 11 10 20 23 20 30 0 16 51 17 104 2z m-1451 -23 c3 3 18 -1
34 -9 24 -14 26 -16 10 -22 -12 -5 -23 -1 -32 11 -17 22 -20 12 -5 -16 7 -14
6 -18 -5 -16 -8 1 -18 6 -22 11 -4 4 -2 5 6 0 9 -5 12 -3 9 6 -3 8 -12 13 -21
11 -8 -1 -19 3 -23 9 -5 9 -2 10 10 6 14 -6 17 -3 12 9 -5 13 -4 14 7 6 8 -7
16 -9 20 -6z m803 5 c8 7 14 7 14 1 0 -5 -7 -15 -15 -22 -8 -7 -15 -10 -15 -7
0 3 -2 11 -3 19 -2 7 -2 9 1 5 2 -4 10 -3 18 4z m-603 -31 c5 -4 1 -10 -8 -14
-11 -4 -14 -2 -9 6 5 7 2 9 -7 6 -8 -3 -22 -9 -31 -13 -13 -5 -18 -2 -18 8 0
8 -6 17 -12 20 -7 3 7 2 32 0 25 -3 49 -9 53 -13z m57 -13 c0 -2 -8 -3 -18 -3
-10 0 -19 6 -19 13 0 8 6 9 19 2 10 -5 18 -11 18 -12z m523 10 c3 -8 -1 -14
-8 -14 -7 0 -11 6 -8 14 3 7 6 13 8 13 2 0 5 -6 8 -13z m755 -32 c3 -3 -4 -7
-14 -11 -64 -20 -75 -27 -69 -43 5 -13 4 -14 -7 -3 -10 10 -7 17 16 35 27 22
27 23 10 37 -17 14 -18 14 -5 -2 11 -14 11 -18 1 -18 -8 0 -22 -8 -33 -17 -20
-18 -20 -18 -2 10 9 15 13 27 9 27 -5 0 -2 4 5 9 13 8 74 -8 89 -24z m-1127
-3 c-7 -2 -18 1 -23 6 -8 8 -4 9 13 5 13 -4 18 -8 10 -11z m1002 -3 c-11 -11
-5 -62 7 -54 9 5 45 -33 38 -40 -3 -3 -13 -2 -22 1 -14 5 -15 9 -4 16 9 6 6 8
-12 6 -22 -3 -25 1 -25 27 0 29 11 55 23 55 3 0 1 -5 -5 -11z m-1035 -11 c-2
-6 -10 -14 -16 -16 -7 -2 -10 2 -6 12 7 18 28 22 22 4z m49 -4 c-3 -3 -12 -4
-19 -1 -8 3 -5 6 6 6 11 1 17 -2 13 -5z m36 -30 c-4 -11 -9 -12 -19 -3 -19 15
-18 20 4 12 15 -6 16 -5 2 13 -14 17 -14 18 2 6 9 -8 14 -20 11 -28z m282 7
c2 -12 0 -19 -6 -16 -5 4 -6 11 -3 17 4 5 -6 2 -22 -8 l-29 -18 24 27 c27 30
30 30 36 -2z m-642 -6 c-5 -14 7 -20 30 -16 5 1 6 -3 2 -9 -10 -16 -44 7 -42
29 0 11 5 18 9 15 4 -3 5 -11 1 -19z m-28 5 c3 -6 -1 -7 -9 -4 -18 7 -21 14
-7 14 6 0 13 -4 16 -10z m339 -5 c3 -8 3 -15 0 -15 -3 0 -12 7 -20 15 -13 13
-13 15 -1 15 8 0 17 -7 21 -15z m96 -10 c0 -2 -9 -3 -19 -2 -11 0 -18 5 -15 9
4 6 34 0 34 -7z m244 -25 c18 -13 19 -13 14 0 -4 12 1 16 25 15 28 -1 54 -25
27 -25 -6 0 -8 -5 -3 -12 11 -19 13 -39 2 -32 -5 3 -7 10 -4 15 4 5 1 9 -5 9
-7 0 -10 6 -7 14 10 27 -6 26 -30 -2 -21 -23 -24 -24 -21 -7 4 29 -41 35 -49
6 -5 -21 -23 -29 -23 -11 0 6 -8 10 -17 10 -11 0 -2 10 22 23 22 13 42 21 45
18 3 -3 14 -13 24 -21z m176 16 c0 -3 -4 -8 -10 -11 -5 -3 -10 -1 -10 4 0 6 5
11 10 11 6 0 10 -2 10 -4z m334 -5 c14 -5 16 -10 7 -15 -15 -10 -61 1 -61 14
0 12 26 12 54 1z m109 -4 c-3 -5 -12 -6 -20 -3 -9 4 -21 2 -28 -4 -8 -7 -12
-6 -12 3 0 8 13 13 33 13 18 0 30 -4 27 -9z m-816 -3 c-3 -3 -12 -4 -19 -1 -8
3 -5 6 6 6 11 1 17 -2 13 -5z m38 -4 c-3 -5 -12 -10 -18 -10 -7 0 -6 4 3 10
19 12 23 12 15 0z m40 0 c-3 -5 -11 -10 -16 -10 -6 0 -7 5 -4 10 3 6 11 10 16
10 6 0 7 -4 4 -10z m100 -20 c-3 -5 -10 -10 -16 -10 -5 0 -9 5 -9 10 0 6 7 10
16 10 8 0 12 -4 9 -10z m560 0 c-3 -5 -10 -10 -16 -10 -5 0 -9 5 -9 10 0 6 7
10 16 10 8 0 12 -4 9 -10z m55 6 c0 -2 -18 -13 -40 -24 -22 -11 -40 -16 -40
-12 0 4 17 15 38 23 43 19 42 18 42 13z m-693 -22 c-3 -3 -12 -4 -19 -1 -8 3
-5 6 6 6 11 1 17 -2 13 -5z m73 -14 c-8 -5 -17 -7 -19 -4 -3 3 1 9 9 14 8 5
17 7 19 4 3 -3 -1 -9 -9 -14z m70 0 c0 -5 -5 -10 -11 -10 -5 0 -7 5 -4 10 3 6
8 10 11 10 2 0 4 -4 4 -10z m-473 -6 c-3 -3 -12 -4 -19 -1 -8 3 -5 6 6 6 11 1
17 -2 13 -5z m98 -22 c-3 -3 -11 0 -18 7 -9 10 -8 11 6 5 10 -3 15 -9 12 -12z
m272 12 c-3 -3 -12 -4 -19 -1 -8 3 -5 6 6 6 11 1 17 -2 13 -5z m37 -16 c-42
-71 -137 -168 -150 -155 -9 9 19 129 30 132 6 2 31 10 56 18 59 19 73 20 64 5z
m-149 -63 c-18 -120 -31 -133 -147 -142 -79 -7 -77 -12 -51 108 l16 77 94 -1
95 -2 -7 -40z m152 20 c0 -8 -4 -12 -9 -9 -5 3 -6 10 -3 15 9 13 12 11 12 -6z
m-1147 -241 c0 -18 25 -46 34 -37 3 4 6 1 6 -5 0 -6 -4 -14 -10 -17 -5 -3 -10
-1 -10 5 0 7 -7 10 -15 6 -8 -3 -15 -2 -15 3 0 5 -3 23 -7 41 -4 24 -3 31 5
26 7 -4 12 -14 12 -22z m24 -90 c3 -8 2 -12 -4 -9 -6 3 -10 10 -10 16 0 14 7
11 14 -7z m1063 -151 c5 -14 -52 -27 -69 -17 -8 5 -3 12 17 20 33 14 47 13 52
-3z m-164 -41 c-3 -12 -9 -22 -14 -22 -12 0 -11 7 3 30 15 24 19 21 11 -8z
m47 -64 c0 -4 -4 -8 -10 -8 -5 0 -10 -4 -10 -10 0 -5 8 -7 18 -4 13 4 14 3 4
-4 -8 -5 -14 -13 -14 -18 0 -5 -6 -20 -13 -34 l-14 -25 3 28 c1 15 6 30 9 34
4 3 2 12 -4 20 -9 10 -8 13 0 13 7 0 10 4 7 8 -3 5 1 9 9 9 8 0 15 -4 15 -9z
m58 -13 c2 -1 -4 -5 -13 -9 -9 -3 -13 -2 -10 4 3 6 -1 10 -9 10 -9 0 -16 5
-16 10 0 9 31 -1 48 -15z m110 7 c8 -7 18 -10 23 -7 5 4 9 1 9 -4 0 -6 -5 -11
-11 -11 -8 0 -8 -5 1 -15 7 -9 8 -15 2 -15 -5 0 -12 7 -16 15 -3 8 -11 15 -18
15 -9 0 -9 -3 0 -12 16 -16 15 -25 -4 -32 -12 -5 -15 -2 -10 10 9 24 -22 56
-48 48 -17 -4 -18 -3 -6 5 8 6 23 8 34 5 12 -4 16 -2 12 5 -10 15 14 10 32 -7z
m102 9 c9 -1 11 -4 5 -9 -5 -4 -10 -13 -10 -19 0 -15 -77 -114 -84 -108 -2 3
3 13 11 22 9 10 13 24 10 32 -3 10 0 12 12 8 15 -6 16 -5 2 14 -15 21 -11 53
5 44 4 -3 6 -12 3 -19 -3 -8 -1 -17 5 -21 6 -3 9 0 5 8 -3 8 -1 18 5 22 6 3
11 11 11 16 0 6 -4 8 -8 5 -4 -2 -14 0 -22 5 -11 7 -8 8 10 5 14 -3 32 -5 40
-5z m-376 -22 c-3 -6 0 -15 7 -20 9 -6 10 -9 2 -9 -15 0 -26 17 -18 30 3 6 8
10 11 10 3 0 2 -5 -2 -11z m184 -26 c-12 -15 -22 -18 -14 -4 4 5 0 11 -6 14
-7 3 -3 4 9 4 17 -1 19 -4 11 -14z m-125 -93 c-8 -35 -13 -38 -13 -7 0 14 -6
27 -12 30 -7 3 -3 4 9 4 19 -1 21 -5 16 -27z"/>
<path d="M470 2141 c0 -6 4 -13 10 -16 6 -3 7 1 4 9 -7 18 -14 21 -14 7z"/>
<path d="M475 2100 c-8 -13 5 -13 25 0 13 8 13 10 -2 10 -9 0 -20 -4 -23 -10z"/>
<path d="M490 2076 c0 -8 5 -18 10 -21 6 -3 10 3 10 14 0 12 -4 21 -10 21 -5
0 -10 -6 -10 -14z"/>
<path d="M505 2010 c-7 -23 2 -43 16 -35 12 8 12 55 0 55 -5 0 -12 -9 -16 -20z"/>
<path d="M540 1944 c0 -3 7 -12 15 -20 16 -17 18 -14 9 10 -6 15 -24 23 -24
10z"/>
<path d="M783 1853 c-3 -6 -1 -18 3 -24 5 -9 10 -5 16 10 4 12 12 20 17 16 5
-3 12 -2 15 3 2 4 -7 8 -21 8 -14 0 -27 -6 -30 -13z"/>
<path d="M560 1780 c0 -5 5 -10 10 -10 6 0 10 5 10 10 0 6 -4 10 -10 10 -5 0
-10 -4 -10 -10z"/>
<path d="M720 1781 c0 -5 -8 -12 -17 -14 -11 -3 -7 -5 10 -6 15 0 27 -5 27
-10 0 -14 -29 -22 -56 -15 -20 5 -24 2 -24 -15 0 -26 -1 -26 52 -2 24 11 52
23 63 27 l20 7 -20 5 c-11 2 -24 10 -28 18 -9 16 -27 19 -27 5z"/>
<path d="M1080 1780 c-8 -5 -10 -10 -5 -10 6 0 17 5 25 10 8 5 11 10 5 10 -5
0 -17 -5 -25 -10z"/>
<path d="M536 1733 c4 -29 2 -43 -6 -43 -6 0 -8 -4 -5 -10 3 -5 1 -10 -4 -10
-6 0 -11 -3 -11 -7 0 -5 11 -8 24 -8 13 0 22 3 20 7 -2 3 2 9 8 11 9 4 7 6 -3
6 -11 1 -15 8 -12 24 2 12 -1 33 -6 47 -9 21 -10 19 -5 -17z"/>
<path d="M640 1760 c0 -5 5 -10 10 -10 6 0 10 5 10 10 0 6 -4 10 -10 10 -5 0
-10 -4 -10 -10z"/>
<path d="M1185 1760 c3 -5 8 -10 11 -10 2 0 4 5 4 10 0 6 -5 10 -11 10 -5 0
-7 -4 -4 -10z"/>
<path d="M180 1739 c0 -5 5 -7 10 -4 6 3 10 8 10 11 0 2 -4 4 -10 4 -5 0 -10
-5 -10 -11z"/>
<path d="M197 1716 c-6 -16 19 -30 28 -16 7 11 -2 30 -15 30 -4 0 -10 -6 -13
-14z"/>
<path d="M624 1632 c3 -5 0 -13 -6 -15 -8 -3 -6 -6 5 -6 19 -1 23 14 5 25 -6
4 -8 3 -4 -4z"/>
<path d="M577 1600 c3 -11 12 -20 19 -20 17 0 18 12 2 28 -18 18 -27 15 -21
-8z"/>
<path d="M534 1576 c-18 -14 -18 -16 16 -44 19 -17 37 -28 40 -25 3 2 -5 12
-17 21 -17 13 -20 21 -13 32 20 32 7 40 -26 16z"/>
<path d="M420 1561 c0 -6 4 -13 10 -16 6 -3 7 1 4 9 -7 18 -14 21 -14 7z"/>
<path d="M500 1540 c0 -5 5 -10 11 -10 5 0 7 5 4 10 -3 6 -8 10 -11 10 -2 0
-4 -4 -4 -10z"/>
<path d="M330 1530 c-13 -8 -12 -10 3 -10 9 0 17 5 17 10 0 12 -1 12 -20 0z"/>
<path d="M465 1477 c-4 -10 -5 -21 -1 -24 10 -10 18 4 13 24 -4 17 -4 17 -12
0z"/>
<path d="M320 1460 c0 -5 5 -10 10 -10 6 0 10 5 10 10 0 6 -4 10 -10 10 -5 0
-10 -4 -10 -10z"/>
<path d="M560 1371 c0 -6 5 -13 12 -17 6 -4 8 -3 4 4 -3 5 0 13 6 15 8 3 6 6
-4 6 -10 1 -18 -3 -18 -8z"/>
<path d="M472 1350 c0 -14 2 -19 5 -12 2 6 2 18 0 25 -3 6 -5 1 -5 -13z"/>
<path d="M460 1280 c0 -5 5 -10 10 -10 6 0 10 5 10 10 0 6 -4 10 -10 10 -5 0
-10 -4 -10 -10z"/>
<path d="M540 1230 c0 -5 5 -10 11 -10 5 0 7 5 4 10 -3 6 -8 10 -11 10 -2 0
-4 -4 -4 -10z"/>
<path d="M2030 1570 c-7 -13 -7 -21 2 -26 7 -4 8 -3 4 4 -4 8 3 16 18 22 31
11 32 15 6 17 -11 1 -24 -7 -30 -17z"/>
<path d="M1600 1550 c0 -5 7 -7 15 -4 8 4 15 8 15 10 0 2 -7 4 -15 4 -8 0 -15
-4 -15 -10z"/>
<path d="M1628 1503 c7 -3 16 -2 19 1 4 3 -2 6 -13 5 -11 0 -14 -3 -6 -6z"/>
<path d="M1601 1474 c0 -11 3 -14 6 -6 3 7 2 16 -1 19 -3 4 -6 -2 -5 -13z"/>
<path d="M1865 1430 c-3 -6 1 -7 9 -4 18 7 21 14 7 14 -6 0 -13 -4 -16 -10z"/>
<path d="M291 1194 c0 -11 3 -14 6 -6 3 7 2 16 -1 19 -3 4 -6 -2 -5 -13z"/>
<path d="M1175 1190 l-20 -9 20 0 c11 0 27 4 35 9 13 9 13 10 0 9 -8 0 -24 -4
-35 -9z"/>
<path d="M1126 1154 c-5 -14 -4 -15 9 -4 17 14 19 20 6 20 -5 0 -12 -7 -15
-16z"/>
<path d="M1170 1160 c-8 -5 -12 -11 -10 -14 3 -2 14 2 24 10 22 15 10 19 -14
4z"/>
<path d="M1081 1124 c-1 -6 5 -16 12 -22 9 -8 16 -6 24 7 9 14 8 18 -3 18 -7
0 -11 -4 -8 -9 3 -4 1 -8 -5 -8 -5 0 -12 6 -14 13 -4 7 -6 8 -6 1z"/>
<path d="M1056 1085 c-3 -9 0 -15 8 -15 7 0 13 7 13 15 0 8 -4 15 -8 15 -4 0
-9 -7 -13 -15z"/>
<path d="M570 940 c-7 -28 -10 -53 -8 -55 3 -3 10 18 16 47 7 28 11 53 8 55
-2 2 -9 -19 -16 -47z"/>
<path d="M736 874 c-4 -14 -5 -28 -3 -31 3 -2 8 8 11 23 4 14 5 28 3 31 -3 2
-8 -8 -11 -23z"/>
<path d="M721 814 c0 -11 3 -14 6 -6 3 7 2 16 -1 19 -3 4 -6 -2 -5 -13z"/>
<path d="M670 1026 c7 -7 13 -7 20 0 6 6 3 10 -10 10 -13 0 -16 -4 -10 -10z"/>
<path d="M1965 1080 c3 -5 13 -10 21 -10 8 0 14 5 14 10 0 6 -9 10 -21 10 -11
0 -17 -4 -14 -10z"/>
<path d="M1415 210 c-3 -5 -1 -10 4 -10 6 0 11 5 11 10 0 6 -2 10 -4 10 -3 0
-8 -4 -11 -10z"/>
</g>
</svg>
